<svg width="24" height="24" viewBox="0 0 24 24" fill="none" xmlns="http://www.w3.org/2000/svg">
<rect x="0.5" y="0.5" width="23" height="23" rx="7.5" stroke="#434343"/>
<path d="M6.37946 12.0641V14.1091H7.13532V14.7243H6.37946V17.3845H5.62946V12.0641H6.37946ZM2.11384 15.8903C3.37653 15.2575 4.05622 14.4079 4.19685 13.2184H2.41853V12.6091H4.95564C4.94978 14.2028 4.32868 15.5827 2.53571 16.4645L2.11384 15.8903Z" fill="black"/>
<path d="M20.1504 5.01172V8.41992H21.4102V9.44531H20.1504V13.8789H18.9004V5.01172H20.1504ZM13.041 11.3887C15.1455 10.334 16.2783 8.91797 16.5127 6.93555H13.5488V5.91992H17.7773C17.7676 8.57617 16.7324 10.876 13.7441 12.3457L13.041 11.3887Z" fill="black"/>
<path d="M12.8096 9.35938V12.0859H13.8174V12.9062H12.8096V16.4531H11.8096V9.35938H12.8096ZM7.12207 14.4609C8.80566 13.6172 9.71191 12.4844 9.89941 10.8984H7.52832V10.0859H10.9111C10.9033 12.2109 10.0752 14.0508 7.68457 15.2266L7.12207 14.4609Z" fill="black"/>
</svg>
