<svg width="28" height="28" viewBox="0 0 28 28" fill="none" xmlns="http://www.w3.org/2000/svg">
<g id="1&#235;&#140;&#128;1 &#235;&#140;&#128;&#237;&#153;&#148;&#235;&#176;&#169; &#236;&#149;&#132;&#236;&#157;&#180;&#236;&#189;&#152;">
<g id="Group 15">
<path id="Union" fill-rule="evenodd" clip-rule="evenodd" d="M10.4985 18.0674C15.1929 18.0674 18.9984 14.6945 18.9984 10.5337C18.9984 6.37296 15.1929 3 10.4985 3C5.80419 3 1.99866 6.37296 1.99866 10.5337C1.99866 12.1214 2.55277 13.5944 3.49895 14.809V19.9731L6.96587 17.3879C8.04171 17.8242 9.23809 18.0674 10.4985 18.0674Z" fill="#8A8A8A"/>
<path id="Subtract" fill-rule="evenodd" clip-rule="evenodd" d="M10.9984 19.0719C15.9689 19.0719 19.9983 15.0244 19.9983 10.0315C19.9983 9.80267 19.9898 9.57585 19.9732 9.3513C23.4604 10.2905 25.9982 13.1629 25.9982 16.5607C25.9982 18.148 25.4444 19.6207 24.4986 20.8352V26L21.0314 23.4148C19.9555 23.8512 18.759 24.0944 17.4984 24.0944C13.74 24.0944 10.5513 21.9324 9.4292 18.935C9.93878 19.025 10.4631 19.0719 10.9984 19.0719Z" fill="#8A8A8A"/>
</g>
</g>
</svg>
