<svg width="28" height="28" viewBox="0 0 28 28" fill="none" xmlns="http://www.w3.org/2000/svg">
<g id="Search" clip-path="url(#clip0_19_200)">
<path id="Vector" d="M18.0833 16.3333H17.1616L16.8349 16.0183C17.9783 14.6883 18.6666 12.9617 18.6666 11.0833C18.6666 6.895 15.2716 3.5 11.0834 3.5C6.89508 3.5 3.50012 6.895 3.50012 11.0833C3.50012 15.2717 6.89508 18.6667 11.0834 18.6667C12.9617 18.6667 14.6883 17.9783 16.0183 16.835L16.3333 17.1617V18.0833L22.1665 23.905L23.9049 22.1667L18.0833 16.3333ZM11.0834 16.3333C8.17839 16.3333 5.83343 13.9883 5.83343 11.0833C5.83343 8.17833 8.17839 5.83333 11.0834 5.83333C13.9883 5.83333 16.3333 8.17833 16.3333 11.0833C16.3333 13.9883 13.9883 16.3333 11.0834 16.3333Z" fill="#FFA7A7"/>
</g>
<defs>
<clipPath id="clip0_19_200">
<rect width="27.9996" height="28" fill="white"/>
</clipPath>
</defs>
</svg>
